Coordinates
version=1
nRows=14
nColumns=40
inDegrees=yes

Units are S.I. units (second, meters, Newtons, ...)
Angles are in degrees.

endheader
time	pelvis_tilt	pelvis_list	pelvis_rotation	pelvis_tx	pelvis_ty	pelvis_tz	hip_flexion_r	hip_adduction_r	hip_rotation_r	knee_angle_r	knee_angle_r_beta	ankle_angle_r	subtalar_angle_r	mtp_angle_r	hip_flexion_l	hip_adduction_l	hip_rotation_l	knee_angle_l	knee_angle_l_beta	ankle_angle_l	subtalar_angle_l	mtp_angle_l	lumbar_extension	lumbar_bending	lumbar_rotation	arm_flex_r	arm_add_r	arm_rot_r	elbow_flex_r	pro_sup_r	wrist_flex_r	wrist_dev_r	arm_flex_l	arm_add_l	arm_rot_l	elbow_flex_l	pro_sup_l	wrist_flex_l	wrist_dev_l
      4.15500000	     -5.06623433	     -4.19618656	      9.56185946	      1.10984561	      0.92355510	      0.48182376	      1.71354661	      1.26910133	    -16.69611888	     13.61437810	     13.61437810	     16.79287530	     -2.41331646	     -2.23166066	     25.48205593	     -4.79111903	      2.78039252	     22.56170459	     22.56170459	      4.30732464	    -12.07742904	     -1.88154435	     -7.99143043	      2.05966556	      4.37319743	     53.24910745	    -16.68815215	     -5.40972486	     81.97588276	     44.82911000	      0.00000000	      0.00000000	     -7.19208972	    -12.40965804	     22.51523768	     27.65634113	     43.52826221	      0.00000000	      0.00000000
      4.17857143	     -5.18799917	     -4.17234720	      9.12522689	      1.10964368	      0.92373736	      0.47705893	      1.54843668	      0.80190917	    -16.90448946	     13.72752097	     13.72752097	     16.73375025	     -1.46432933	     -2.16837479	     25.38228062	     -4.49305507	      2.83978546	     22.99739915	     22.99739915	      5.08493733	    -12.74398189	     -0.69192702	     -7.91471114	      2.10943403	      4.64312687	     53.65152018	    -17.03723636	     -5.25838289	     79.85159028	     44.90582080	      0.00000000	      0.00000000	     -6.42952043	    -12.75307607	     22.45071670	     28.00451772	     43.58184401	      0.00000000	      0.00000000
      4.20214286	     -5.33791349	     -4.17272548	      8.68902917	      1.10932045	      0.92391959	      0.47243995	      1.44070317	      0.43504349	    -16.65617116	     13.80039230	     13.80039230	     16.49855345	     -1.26824172	     -2.09422798	     25.22137928	     -4.30622101	      2.57380911	     23.19742851	     23.19742851	      5.49465388	    -13.02113191	     -0.73765001	     -7.93050685	      2.18354700	      4.51214257	     53.48607242	    -16.83482457	     -5.15215544	     79.62068237	     44.90993993	      0.00000000	      0.00000000	     -5.81285122	    -13.04120273	     22.39215241	     28.14473120	     43.60229780	      0.00000000	      0.00000000
      4.22571429	     -5.44593702	     -4.01619443	      8.22258544	      1.10873878	      0.92413933	      0.46765508	      1.48813828	     -0.24358529	    -16.70010482	     14.32820731	     14.32820731	     16.55885472	     -0.55031017	     -2.03834814	     25.09658869	     -3.96571439	      2.17788494	     23.62490355	     23.62490355	      6.39296816	    -13.09038015	      0.55137278	     -7.86721165	      2.14651039	      4.51725171	     53.84340462	    -16.70629499	     -4.94141091	     76.44515489	     45.02118491	      0.00000000	      0.00000000	     -5.13856226	    -13.39746492	     22.37799511	     28.51379270	     43.66099258	      0.00000000	      0.00000000
      4.24928571	     -5.54667878	     -3.99191789	      7.83187033	      1.10805667	      0.92437780	      0.46294959	      1.50107155	     -0.69921864	    -16.56312121	     14.69820279	     14.69820279	     16.50256931	     -0.26690442	     -1.73751247	     24.94387530	     -3.76628569	      1.78928645	     23.92798180	     23.92798180	      7.33649256	    -12.92967291	      1.66671490	     -7.85479870	      2.29355862	      4.04824131	     54.11843056	    -16.09996027	     -4.68289606	     73.85356079	     45.11594693	      0.00000000	      0.00000000	     -4.65618091	    -13.79803083	     22.25658156	     28.99476545	     43.76550795	      0.00000000	      0.00000000
      4.27285714	     -5.57954280	     -3.94407588	      7.43139418	      1.10742860	      0.92470643	      0.45826089	      1.46678777	     -1.16213418	    -16.30460651	     15.09204810	     15.09204810	     16.32085677	     -0.18138966	     -1.72417877	     24.60608174	     -3.55295383	      1.41018890	     24.01315153	     24.01315153	      7.71521051	    -13.03652170	      1.60787186	     -7.92796487	      2.39952709	      4.07287081	     53.36082748	    -16.19122017	     -4.66263805	     73.02607320	     45.14145278	      0.00000000	      0.00000000	     -3.82852296	    -14.08902777	     22.12049890	     29.29826712	     43.80691847	      0.00000000	      0.00000000
      4.29642857	     -5.67218757	     -3.85833817	      6.99754405	      1.10662232	      0.92490521	      0.45361671	      1.70259054	     -1.74367630	    -16.05456863	     15.86381548	     15.86381548	     16.25348219	     -0.11137798	     -1.74870623	     24.31425921	     -3.32700580	      0.86857413	     24.04821671	     24.04821671	      8.16758154	    -12.94274361	      1.62271819	     -7.86838324	      2.46152654	      4.39005242	     52.63865152	    -16.68429038	     -4.83903547	     70.91707761	     45.21920941	      0.00000000	      0.00000000	     -2.74939834	    -14.34584081	     21.91285291	     29.76150750	     43.87682558	      0.00000000	      0.00000000
      4.32000000	     -5.66405533	     -3.82911751	      6.61676349	      1.10592329	      0.92518465	      0.44898853	      1.81234484	     -2.22506189	    -15.79132057	     16.58304713	     16.58304713	     16.23416045	     -0.09026933	     -1.46771091	     23.98201709	     -3.15336899	      0.41365147	     24.20749584	     24.20749584	      8.78441389	    -12.80695018	      1.89269716	     -7.81599787	      2.63646927	      3.95631474	     52.25078475	    -16.13910379	     -4.94668456	     67.48921427	     45.34404268	      0.00000000	      0.00000000	     -2.03854204	    -14.58788688	     21.61188799	     29.99348234	     44.01056372	      0.00000000	      0.00000000
      4.34357143	     -5.62543753	     -3.72801134	      6.22045363	      1.10527198	      0.92544216	      0.44441060	      2.03371885	     -2.81273050	    -15.45381555	     17.56653478	     17.56653478	     16.15184258	     -0.26962195	     -1.59009072	     23.53612119	     -2.90148241	     -0.05615665	     24.22278743	     24.22278743	      9.18027798	    -12.81696568	      1.79159688	     -7.84010837	      2.71931569	      4.03278220	     50.77533735	    -16.46994464	     -4.99428269	     66.04111889	     45.38942372	      0.00000000	      0.00000000	     -0.98961187	    -14.80468623	     21.36467331	     30.46019276	     44.07738491	      0.00000000	      0.00000000
      4.36714286	     -5.54229406	     -3.65224190	      5.82979791	      1.10466959	      0.92563174	      0.43991015	      2.32681773	     -3.38194787	    -15.05639400	     18.75139479	     18.75139479	     16.06212005	     -0.57890478	     -1.77504046	     23.08879899	     -2.67535355	     -0.47316201	     24.31756374	     24.31756374	      9.63075672	    -12.83981437	      1.66684544	     -7.84740682	      2.83682928	      4.08682399	     49.08201976	    -16.74560057	     -5.09552662	     64.19649798	     45.44896373	      0.00000000	      0.00000000	      0.12143505	    -14.96081315	     21.11749294	     30.88821254	     44.14517700	      0.00000000	      0.00000000
      4.39071429	     -5.42344078	     -3.58910969	      5.42583749	      1.10410109	      0.92578195	      0.43554172	      2.73779162	     -3.95199157	    -14.55434204	     20.20355145	     20.20355145	     15.93326078	     -1.07461915	     -2.08561038	     22.62778975	     -2.46669611	     -0.86702220	     24.44842442	     24.44842442	     10.08748727	    -12.90970423	      1.57520195	     -7.87083668	      2.97627883	      4.04828208	     47.18685024	    -16.91350665	     -5.23995597	     62.07317446	     45.51840065	      0.00000000	      0.00000000	      1.29103156	    -15.04326009	     20.86225867	     31.28132857	     44.21641447	      0.00000000	      0.00000000
      4.41428571	     -5.21800631	     -3.48988469	      5.04991248	      1.10363817	      0.92590195	      0.43123681	      3.19361204	     -4.57487442	    -14.02800473	     21.92490637	     21.92490637	     15.75274864	     -1.72750603	     -2.54435268	     22.10480499	     -2.21385164	     -1.23312373	     24.64082895	     24.64082895	     10.54485316	    -13.06534068	      1.49064969	     -7.94429915	      3.09763124	      3.87649195	     44.95103927	    -16.97596299	     -5.34759868	     60.04061402	     45.58147710	      0.00000000	      0.00000000	      2.45277547	    -15.13938008	     20.61996125	     31.65010749	     44.28094318	      0.00000000	      0.00000000
      4.43785714	     -5.03491787	     -3.42189297	      4.62147627	      1.10312717	      0.92583015	      0.42711280	      3.92754952	     -5.18693550	    -13.33898249	     24.06288437	     24.06288437	     15.44020324	     -2.66342103	     -3.29051013	     21.64008630	     -1.98477666	     -1.51559712	     24.88815036	     24.88815036	     11.04297311	    -13.31126144	      1.46166761	     -7.95730518	      3.24684742	      3.78462764	     42.52374887	    -17.02002828	     -5.52873049	     57.68038082	     45.65754499	      0.00000000	      0.00000000	      3.74286901	    -15.12033767	     20.34686736	     32.04777464	     44.35409577	      0.00000000	      0.00000000
      4.46142857	     -4.54070241	     -3.49710443	      4.30356075	      1.10297858	      0.92612647	      0.42307126	      4.24505886	     -5.61796223	    -12.89891073	     26.09560323	     26.09560323	     15.04630132	     -3.31359954	     -3.82310818	     20.87210094	     -1.89793590	     -1.61200723	     25.18856658	     25.18856658	     11.60131721	    -13.60126897	      1.33740164	     -8.30176721	      3.58463560	      3.20897687	     39.69161842	    -16.63683185	     -5.45265257	     56.08377823	     45.69497553	      0.00000000	      0.00000000	      4.86976192	    -15.20493415	     20.17330712	     32.39811257	     44.39979601	      0.00000000	      0.00000000
